<svg width="804" height="719" viewBox="0 0 804 719" fill="none" xmlns="http://www.w3.org/2000/svg">
<mask id="mask0_77_7" style="mask-type:alpha" maskUnits="userSpaceOnUse" x="0" y="0" width="804" height="719">
<rect width="804" height="719" fill="#D9D9D9"/>
</mask>
<g mask="url(#mask0_77_7)">
</g>
<g opacity="0.6" clip-path="url(#clip0_77_7)">
<path d="M678.346 4.41908C572.458 4.41908 313.938 4.41908 208.401 4.41908C237.622 33.6601 317.558 113.65 411.801 207.957C436.065 207.957 457.572 207.957 474.959 207.957C520.121 204.807 566.729 219.137 598.518 252.082C624.794 278.079 640.681 313.998 642.613 350.836C642.613 356.041 642.613 390.46 642.613 438.938C736.842 533.231 816.765 613.208 846.014 642.476C846.014 642.476 846.014 167.82 846.014 147.312C844.068 110.473 828.181 74.5542 801.918 48.5577C770.117 15.5991 723.495 1.28273 678.346 4.41908Z" fill="#A2C31F"/>
<path d="M5 207.957C86.3954 289.407 561.163 764.496 642.613 846C642.613 846 642.613 581.587 642.613 438.938C568.607 364.882 485.793 282.012 411.788 207.957C288.283 207.957 93.2042 207.957 5 207.957Z" fill="#647F8A"/>
</g>
<defs>
<clipPath id="clip0_77_7">
<rect width="841" height="842" fill="white" transform="translate(5 4)"/>
</clipPath>
</defs>
</svg>
