<?xml version="1.0" encoding="UTF-8"?><svg id="_圖層_2" xmlns="http://www.w3.org/2000/svg" viewBox="0 0 1920 507.64"><defs><style>.cls-1{fill:#fff;}.cls-2{fill:#76b900;}.cls-3{fill:#a6ce39;}.cls-4{fill:none;}</style></defs><g id="_圖層_1-2"><g id="Elite_Partner"><rect class="cls-1" x="1329.51" y="146.83" width="584.7" height="227.87"/><path d="m1323.72,141.05v239.45h596.28v-239.45h-596.28Zm590.49,233.66h-584.7v-227.87h584.7v227.87Zm-303.49-17.52h-2.9v-192.82h2.9v192.82Zm68.37-108.73h-17.55v-10.79h13.32l.72-5.01h-14.04v-10.33h17.29v-5.01h-23.23v36.14h23.49v-5.01Zm12.24-32.68h-5.68v37.69h5.68v-37.69Zm13.17,37.69v-26.44h-5.68v26.44h5.68Zm.1-37.07h-5.89v5.94h5.89v-5.94Zm9.76,28.65c0,2.79.7,4.93,2.12,6.43,1.41,1.5,3.79,2.25,7.13,2.25h5.06v-4.8h-4.49c-1.38,0-2.41-.32-3.1-.96-.69-.64-1.03-1.69-1.03-3.17v-13.06h7.95l.67-4.7h-8.62v-7.8h-5.68v7.8h-5.58v4.7h5.58v13.32Zm31.18-18.74h-.47c-3.75,0-6.73,1.16-8.93,3.49-2.2,2.33-3.31,5.53-3.31,9.63v1.7c0,4.17,1.08,7.38,3.23,9.63,2.15,2.26,5.15,3.38,9.01,3.38h.77c2.45,0,4.56-.46,6.35-1.37,1.79-.91,3.15-2.16,4.08-3.74l-4.13-2.68c-.62,1.07-1.44,1.87-2.45,2.4-1.01.53-2.3.8-3.85.8h-.77c-2.03,0-3.62-.64-4.78-1.91-1.15-1.27-1.78-3.2-1.88-5.79h18.74v-3.15c0-3.78-1.04-6.8-3.12-9.03-2.08-2.24-4.91-3.36-8.49-3.36Zm6.09,11.56h-13.17c.21-2.27.89-3.99,2.04-5.16,1.15-1.17,2.68-1.75,4.57-1.75h.41c1.93,0,3.43.56,4.52,1.68,1.08,1.12,1.63,2.75,1.63,4.88v.36Zm-73.11,34.06c-2.38-1.98-5.61-2.97-9.71-2.97h-13.22v36.14h5.94v-12.7h7.28c4.1,0,7.33-.97,9.71-2.92,2.38-1.94,3.56-4.71,3.56-8.29v-1.08c0-3.48-1.19-6.2-3.56-8.18Zm-2.38,9.42c0,2.06-.68,3.58-2.04,4.54-1.36.96-3.17,1.45-5.45,1.45h-7.12v-13.27h7.12c2.27,0,4.09.48,5.45,1.45,1.36.96,2.04,2.46,2.04,4.49v1.34Zm20.29-3.41h-.78c-2.58,0-4.77.53-6.58,1.57-1.81,1.05-3.11,2.49-3.9,4.31l4.39,2.27c.62-1.27,1.42-2.18,2.4-2.71.98-.54,2.21-.8,3.69-.8h.57c3.51,0,5.27,1.96,5.27,5.89v.21l-9.35,1.24c-2.62.34-4.6,1.2-5.96,2.58-1.36,1.38-2.04,3.15-2.04,5.32,0,2.51.77,4.47,2.32,5.86,1.55,1.4,3.73,2.09,6.56,2.09h.36c1.96,0,3.72-.42,5.27-1.27,1.55-.84,2.72-1.99,3.51-3.43v4.03h5.01v-16.73c0-3.41-.91-6-2.74-7.77-1.82-1.77-4.49-2.66-8-2.66Zm5.06,16.37c0,2.1-.6,3.78-1.81,5.03-1.2,1.26-2.82,1.89-4.86,1.89h-.52c-1.48,0-2.63-.34-3.43-1.01-.81-.67-1.21-1.59-1.21-2.76s.35-2.03,1.06-2.58c.71-.55,1.95-.95,3.74-1.19l7.02-1.03v1.65Zm20.63-14.51c-1.19.96-2.11,2.26-2.76,3.87v-5.01h-5.01v26.44h5.68v-13.32c0-1.96.33-3.54,1.01-4.72.67-1.19,1.55-2.06,2.63-2.61,1.08-.55,2.24-.83,3.49-.83h2.63v-5.26h-2.69c-2.13,0-3.79.48-4.98,1.45Zm29.92,3.56l.67-4.7h-8.62v-7.8h-5.68v7.8h-5.58v4.7h5.58v13.32c0,2.79.7,4.93,2.11,6.43,1.41,1.5,3.79,2.25,7.13,2.25h5.06v-4.8h-4.49c-1.38,0-2.41-.32-3.1-.96-.69-.64-1.03-1.69-1.03-3.17v-13.06h7.95Zm20.6-5.42h-.52c-1.96,0-3.66.42-5.08,1.27-1.43.84-2.56,1.99-3.38,3.43v-3.98h-5.01v26.44h5.68v-14.56c0-1.76.31-3.2.93-4.34.62-1.14,1.43-1.98,2.43-2.53,1-.55,2.05-.83,3.15-.83h.36c1.89,0,3.3.58,4.23,1.73.93,1.15,1.39,2.82,1.39,4.98v15.54h5.68v-16.32c0-3.51-.9-6.19-2.69-8.05-1.79-1.86-4.18-2.79-7.17-2.79Zm28.29,0h-.47c-3.75,0-6.73,1.16-8.93,3.49-2.2,2.33-3.31,5.53-3.31,9.63v1.7c0,4.17,1.08,7.38,3.23,9.63,2.15,2.26,5.15,3.38,9.01,3.38h.77c2.45,0,4.56-.46,6.35-1.37,1.79-.91,3.15-2.16,4.08-3.74l-4.13-2.68c-.62,1.07-1.44,1.87-2.45,2.4-1.01.53-2.3.8-3.85.8h-.77c-2.03,0-3.62-.64-4.78-1.91-1.15-1.27-1.78-3.2-1.88-5.79h18.74v-3.15c0-3.78-1.04-6.8-3.12-9.03-2.08-2.24-4.91-3.36-8.49-3.36Zm6.09,11.56h-13.17c.21-2.27.89-3.99,2.04-5.16,1.15-1.17,2.68-1.75,4.57-1.75h.41c1.93,0,3.43.56,4.52,1.68,1.08,1.12,1.63,2.75,1.63,4.88v.36Zm24.16-11.15c-2.13,0-3.79.48-4.98,1.45-1.19.96-2.11,2.26-2.76,3.87v-5.01h-5.01v26.44h5.68v-13.32c0-1.96.33-3.54,1.01-4.72.67-1.19,1.55-2.06,2.63-2.61,1.08-.55,2.24-.83,3.49-.83h2.63v-5.26h-2.69Z"/><g id="NVIDIA_Logo"><path id="NVIDIA" d="m1448.18,300.05v36.78h10.39v-36.77h-10.39Zm-81.7-.05v36.83h10.48v-27.96h8.12c2.69,0,4.6.67,5.9,2.05,1.64,1.75,2.31,4.57,2.31,9.74v16.17h10.15s0-20.35,0-20.35c0-14.52-9.26-16.48-18.31-16.48h-18.65m98.43.05v36.77h16.85c8.98,0,11.9-1.49,15.07-4.84,2.24-2.35,3.69-7.51,3.69-13.14,0-5.17-1.22-9.78-3.36-12.65-3.85-5.14-9.39-6.14-17.67-6.14h-14.58Zm10.3,8.01h4.47c6.48,0,10.67,2.91,10.67,10.46s-4.19,10.46-10.67,10.46h-4.47v-20.92Zm-42-8.01l-8.67,29.15-8.31-29.14h-11.21s11.86,36.77,11.86,36.77h14.97l11.95-36.77h-10.6Zm72.14,36.77h10.39v-36.77h-10.39s0,36.77,0,36.77Zm29.12-36.76l-14.5,36.75h10.24l2.29-6.5h17.16l2.17,6.5h11.12l-14.61-36.75h-13.87Zm6.74,6.7l6.29,17.22h-12.78l6.49-17.22Z"/><path id="Eye_Mark" class="cls-2" d="m1434.45,213.9v-8.83c.86-.06,1.72-.11,2.61-.13,24.16-.76,40.02,20.76,40.02,20.76,0,0-17.12,23.78-35.48,23.78-2.64,0-5.01-.43-7.14-1.14v-26.79c9.41,1.14,11.3,5.29,16.95,14.72l12.58-10.61s-9.18-12.04-24.66-12.04c-1.68,0-3.29.12-4.87.29m0-29.18v13.2c.87-.07,1.74-.12,2.61-.16,33.6-1.13,55.49,27.56,55.49,27.56,0,0-25.15,30.58-51.34,30.58-2.4,0-4.65-.22-6.76-.6v8.16c1.81.23,3.68.36,5.63.36,24.38,0,42.01-12.45,59.08-27.18,2.83,2.27,14.42,7.78,16.8,10.2-16.23,13.59-54.06,24.54-75.5,24.54-2.07,0-4.05-.12-6-.31v11.46h92.66v-97.81h-92.66Zm0,63.62v6.96c-22.55-4.02-28.81-27.46-28.81-27.46,0,0,10.83-11.99,28.81-13.94v7.64s-.02,0-.04,0c-9.43-1.13-16.81,7.68-16.81,7.68,0,0,4.13,14.84,16.84,19.11m-40.05-21.51s13.36-19.72,40.05-21.76v-7.15c-29.55,2.37-55.15,27.4-55.15,27.4,0,0,14.49,41.91,55.15,45.74v-7.6c-29.83-3.75-40.05-36.63-40.05-36.63Z"/></g></g><rect class="cls-4" width="1164.94" height="507.64"/><path class="cls-3" d="m315.53,270.99c0-43.55-35.32-78.87-78.89-78.87s-78.88,35.32-78.88,78.87,35.32,78.89,78.88,78.89c10.86,0,21.21-2.2,30.63-6.16v-35.5c-8.33,6.86-18.99,10.97-30.63,10.97-26.62,0-48.21-21.57-48.21-48.21s21.59-48.19,48.21-48.19,48.21,21.57,48.21,48.19c0,.16-.02.33-.02.49h0v78.39l30.69-19.1v-59.23c0-.18.02-.36.02-.56Z"/><path class="cls-3" d="m1007.18,270.99c0-43.55-35.33-78.87-78.88-78.87s-78.89,35.32-78.89,78.87,35.32,78.89,78.89,78.89c10.85,0,21.21-2.2,30.62-6.16v-35.5c-8.33,6.86-18.99,10.97-30.62,10.97-26.62,0-48.21-21.57-48.21-48.21s21.58-48.19,48.21-48.19,48.19,21.57,48.19,48.19v.49h-.02v78.39l30.68-19.1v-59.23c0-.18.03-.36.03-.56Z"/><path class="cls-3" d="m481.69,270.99c0-43.55-35.32-78.87-78.88-78.87s-78.88,35.32-78.88,78.87,35.32,78.89,78.88,78.89c34.73,0,64.19-22.44,74.73-53.61h-33.67c-8.48,13.76-23.7,22.93-41.06,22.93-26.63,0-48.21-21.57-48.21-48.21s21.58-48.19,48.21-48.19c21.07,0,38.98,13.53,45.53,32.38h-70.75v25.18h103.52c.36-3.08.57-6.19.57-9.37Z"/><path class="cls-3" d="m617.68,253.98v-30.66h-79.89v-39.67h-30.68v39.67h-17.02v30.66h17.02v16.15h.01c0,.29-.01.59-.01.87,0,42.18,33.09,76.61,74.73,78.77v.03h35v-30.78h-35c-24.68-2.11-44.05-22.79-44.05-48.03,0-.31.02-.64.02-.96h-.02v-16.05h79.89Z"/><path class="cls-3" d="m841.01,270.99c0-43.55-35.32-78.87-78.89-78.87s-78.87,35.32-78.87,78.87c0,.2,0,.36,0,.54h.03v78.28h30.66v-78.82h-.02c0-26.62,21.58-48.19,48.19-48.19s48.2,21.57,48.22,48.19h-.06v78.82h30.66v-78.28h.05c0-.18.02-.34.02-.54Z"/><path class="cls-3" d="m674.84,182.13c0,13.46-10.92,24.37-24.38,24.37s-24.37-10.91-24.37-24.37,10.91-24.37,24.37-24.37,24.38,10.91,24.38,24.37Z"/><rect class="cls-3" x="632.33" y="217.1" width="36.28" height="132.71"/><rect class="cls-1" x="1165.56" y="141.67" width="6.85" height="231.91"/></g></svg>