<?xml version="1.0" encoding="UTF-8"?><svg id="_圖層_2" xmlns="http://www.w3.org/2000/svg" viewBox="0 0 1932.23 199.91"><defs><style>.cls-1{fill:#fff;}.cls-2{fill:#a1c21e;}</style></defs><g id="_圖層_1-2"><polygon class="cls-1" points="14.39 15.77 0 15.77 0 153.78 14.39 153.78 22.87 153.78 83.99 153.78 83.99 133.27 22.87 133.27 22.87 89.9 80.04 89.9 80.04 69.79 22.87 69.79 22.87 36.27 83.99 36.27 83.99 15.77 22.87 15.77 14.39 15.77"/><path class="cls-1" d="m179.01,78.25c-2.97-4.73-6.62-8.53-10.94-11.42-5.72-3.81-12.39-5.72-20.01-5.72s-15.02,1.87-21.79,5.62c-6.77,3.75-12.19,9.14-16.26,16.17-4.08,7.03-6.11,15.54-6.11,25.53s2.04,18.34,6.11,25.43c4.07,7.1,9.49,12.52,16.26,16.26,6.77,3.75,14.03,5.62,21.79,5.62s14.29-1.91,20.01-5.72c4.32-2.88,7.97-6.71,10.94-11.47v15.22h21.49V0h-21.49v78.25Zm-3.84,45.85c-2.56,4.27-5.82,7.53-9.76,9.76-3.94,2.24-8.02,3.35-12.22,3.35-4.86,0-9.36-1.12-13.51-3.35-4.14-2.23-7.46-5.52-9.96-9.86-2.5-4.34-3.75-9.53-3.75-15.57s1.25-11.24,3.75-15.57c2.5-4.34,5.82-7.62,9.96-9.86,4.14-2.23,8.64-3.35,13.51-3.35,4.2,0,8.28,1.12,12.22,3.35,3.94,2.24,7.2,5.49,9.76,9.76,2.56,4.27,3.84,9.5,3.84,15.67s-1.28,11.4-3.84,15.67Z"/><path class="cls-1" d="m295.13,77.95c-2.97-4.64-6.62-8.38-10.94-11.21-5.72-3.75-12.39-5.62-20.01-5.62s-15.02,1.84-21.79,5.52c-6.77,3.68-12.19,8.97-16.26,15.87-4.08,6.9-6.11,15.35-6.11,25.33s2.04,18.47,6.11,25.43c4.07,6.97,9.49,12.29,16.26,15.97,6.77,3.68,14.03,5.52,21.79,5.52s14.29-1.87,20.01-5.62c4.32-2.83,7.97-6.61,10.94-11.32v13.99c0,6.83-1.28,12.42-3.84,16.76-2.56,4.34-5.88,7.56-9.96,9.66-4.08,2.1-8.28,3.15-12.62,3.15-5.13,0-9.6-.96-13.41-2.86-3.81-1.91-6.77-4.47-8.87-7.69-2.1-3.22-3.22-6.87-3.35-10.94h-21.29c.26,7.89,2.3,14.85,6.11,20.9,3.81,6.04,9.2,10.75,16.17,14.1,6.96,3.35,15.31,5.03,25.04,5.03,8.28,0,15.97-1.74,23.07-5.22,7.1-3.48,12.85-8.77,17.25-15.87,4.4-7.1,6.6-16.1,6.6-27.01V63.09h-20.9v14.86Zm-3.84,45.47c-2.56,4.21-5.82,7.39-9.76,9.56-3.94,2.17-8.02,3.25-12.22,3.25-4.86,0-9.36-1.08-13.51-3.25-4.14-2.17-7.46-5.39-9.96-9.66-2.5-4.27-3.75-9.43-3.75-15.48s1.25-11.17,3.75-15.38c2.5-4.21,5.82-7.39,9.96-9.56,4.14-2.17,8.64-3.25,13.51-3.25,3.15,0,6.24.59,9.27,1.78,3.02,1.18,5.78,2.99,8.28,5.42,2.49,2.43,4.5,5.39,6.01,8.87,1.51,3.48,2.27,7.53,2.27,12.12,0,6.18-1.28,11.37-3.84,15.57Z"/><path class="cls-1" d="m407.41,66.64c-6.77-3.68-14.95-5.52-24.55-5.52s-17.94,1.94-25.04,5.82c-7.1,3.88-12.59,9.37-16.46,16.46-3.88,7.1-5.82,15.45-5.82,25.04s1.9,17.74,5.72,24.84c3.81,7.1,9.23,12.62,16.27,16.56,7.03,3.94,15.15,5.92,24.35,5.92,10.51,0,19.52-2.07,27.01-6.21,7.49-4.14,13.67-10.28,18.53-18.43l-18.53-7.3c-2.76,4.86-6.31,8.48-10.65,10.84s-9.46,3.55-15.38,3.55c-5.52,0-10.19-1.18-14-3.55-3.81-2.37-6.74-5.85-8.77-10.45-1.41-3.17-2.28-6.79-2.66-10.84h70.57c0-.52.03-1.38.1-2.56.06-1.18.1-2.3.1-3.35,0-9.73-1.77-18.04-5.32-24.94-3.55-6.9-8.71-12.19-15.48-15.87Zm-38.44,14.2c3.75-2.37,8.31-3.55,13.7-3.55,4.47,0,8.38.99,11.73,2.96,3.35,1.97,5.98,4.73,7.89,8.28,1.56,2.91,2.47,6.27,2.75,10.05h-47.04c.51-2.76,1.27-5.26,2.29-7.49,2.04-4.47,4.93-7.89,8.67-10.25Z"/><path class="cls-1" d="m624.66,33.61c-6.51-6.37-14.1-11.37-22.77-14.98-8.67-3.61-18.21-5.42-28.59-5.42s-19.55,1.81-28.29,5.42c-8.74,3.62-16.36,8.61-22.87,14.98-6.51,6.38-11.53,13.9-15.08,22.57-3.55,8.67-5.32,18.21-5.32,28.59s1.77,19.78,5.32,28.59c3.55,8.81,8.54,16.43,14.98,22.87,6.44,6.44,14.03,11.47,22.77,15.08,8.74,3.61,18.24,5.42,28.49,5.42s20.11-1.81,28.78-5.42c8.68-3.61,16.23-8.64,22.67-15.08,6.44-6.44,11.44-14.06,14.98-22.87,3.55-8.8,5.32-18.33,5.32-28.59s-1.77-19.91-5.32-28.59c-3.55-8.67-8.58-16.2-15.08-22.57Zm-10.45,76.4c-4.01,7.36-9.53,13.18-16.56,17.45-7.03,4.27-15.15,6.41-24.35,6.41s-17.12-2.13-24.15-6.41c-7.03-4.27-12.59-10.09-16.66-17.45-4.08-7.36-6.11-15.77-6.11-25.24s2.04-17.91,6.11-25.33c4.07-7.42,9.63-13.24,16.66-17.45,7.03-4.2,15.08-6.31,24.15-6.31s17.51,2.1,24.55,6.31c7.03,4.21,12.52,10.02,16.46,17.45,3.94,7.43,5.91,15.87,5.91,25.33s-2.01,17.88-6.01,25.24Z"/><polygon class="cls-1" points="768.68 15.77 768.68 108.43 667.93 8.87 667.93 153.78 690.8 153.78 690.8 61.12 791.55 160.68 791.55 15.77 768.68 15.77"/><path class="cls-1" d="m1049.41,156.37h26.22l15.72-35.49h50.86l15.83,35.49h26.42l-67.62-145.69-67.42,145.69Zm86.28-55.2h-37.59l18.73-43.77,18.85,43.77Z"/><rect class="cls-1" x="1200.23" y="18.37" width="23.66" height="138"/><path class="cls-1" d="m1392.44,87.96c-4.23-2.78-9.06-4.91-14.45-6.41.08-.03.17-.06.26-.09,6.57-2.5,11.73-6.14,15.48-10.94,3.75-4.8,5.62-10.61,5.62-17.45,0-7.89-1.87-14.39-5.62-19.52-3.75-5.13-8.91-8.94-15.48-11.44-6.57-2.49-14.26-3.75-23.07-3.75h-41.6v138h43.96c9.86,0,18.5-1.41,25.93-4.24,7.42-2.82,13.24-7.2,17.45-13.11,4.21-5.92,6.31-13.41,6.31-22.48,0-6.57-1.31-12.22-3.94-16.96-2.63-4.73-6.24-8.61-10.84-11.63Zm-38.84-50.47c6.57,0,11.86,1.58,15.87,4.73,4.01,3.15,6.01,7.62,6.01,13.41,0,3.81-.92,7.07-2.76,9.76-1.84,2.7-4.4,4.77-7.69,6.21-3.29,1.45-7.1,2.17-11.43,2.17h-16.76v-36.27h16.76Zm26.22,89.41c-2.37,3.35-5.59,5.88-9.66,7.59-4.08,1.71-8.74,2.56-14,2.56h-19.32v-45.15h19.32c3.94,0,7.56.43,10.84,1.28,3.28.86,6.18,2.24,8.67,4.14,2.5,1.91,4.4,4.24,5.72,7,1.31,2.76,1.97,6.05,1.97,9.86,0,5.13-1.18,9.36-3.55,12.72Z"/><path class="cls-1" d="m1495.26,69.23c-6.77-3.68-14.95-5.52-24.55-5.52s-17.94,1.94-25.04,5.82c-7.1,3.88-12.59,9.37-16.46,16.46-3.88,7.1-5.82,15.45-5.82,25.04s1.9,17.74,5.72,24.84c3.81,7.1,9.23,12.62,16.26,16.56,7.03,3.94,15.15,5.92,24.35,5.92,10.51,0,19.52-2.07,27.01-6.21,7.49-4.14,13.67-10.28,18.53-18.43l-18.53-7.3c-2.76,4.86-6.31,8.48-10.65,10.84-4.34,2.37-9.46,3.55-15.38,3.55-5.52,0-10.19-1.18-14-3.55-3.81-2.37-6.74-5.85-8.77-10.45-1.41-3.17-2.28-6.79-2.66-10.84h70.57c0-.52.03-1.38.1-2.56.06-1.18.1-2.3.1-3.35,0-9.73-1.77-18.04-5.32-24.94-3.55-6.9-8.71-12.19-15.48-15.87Zm-38.44,14.2c3.75-2.37,8.31-3.55,13.7-3.55,4.47,0,8.38.99,11.73,2.96,3.35,1.97,5.98,4.73,7.89,8.28,1.56,2.91,2.47,6.27,2.75,10.05h-47.04c.51-2.76,1.27-5.26,2.29-7.49,2.04-4.47,4.93-7.89,8.67-10.25Z"/><polygon class="cls-1" points="1567.46 124.62 1543.65 65.68 1519.21 65.68 1555.88 145.72 1532.02 199.74 1554.69 199.74 1613.84 65.68 1590.97 65.68 1567.46 124.62"/><path class="cls-1" d="m1690.92,69.72c-7.36-4.01-15.71-6.01-25.04-6.01s-17.51,2.01-24.94,6.01c-7.43,4.01-13.28,9.56-17.55,16.66-4.27,7.1-6.41,15.31-6.41,24.64s2.14,17.38,6.41,24.55c4.27,7.17,10.12,12.75,17.55,16.76,7.42,4.01,15.74,6.01,24.94,6.01s17.68-2,25.04-6.01c7.36-4.01,13.18-9.59,17.45-16.76,4.27-7.16,6.41-15.34,6.41-24.55s-2.14-17.55-6.41-24.64c-4.27-7.1-10.09-12.65-17.45-16.66Zm-1.58,56.19c-2.37,4.27-5.59,7.62-9.66,10.05-4.08,2.43-8.67,3.65-13.8,3.65s-9.73-1.21-13.8-3.65c-4.08-2.43-7.3-5.78-9.66-10.05-2.37-4.27-3.55-9.23-3.55-14.89s1.18-10.65,3.55-14.98c2.37-4.34,5.59-7.69,9.66-10.05,4.07-2.37,8.67-3.55,13.8-3.55s9.73,1.18,13.8,3.55c4.07,2.37,7.29,5.72,9.66,10.05,2.37,4.34,3.55,9.33,3.55,14.98s-1.18,10.62-3.55,14.89Z"/><path class="cls-1" d="m1783.78,63.71c-6.18,0-11.53,1.32-16.07,3.94-4.53,2.63-8.25,6.64-11.14,12.03v-14h-21.49v90.69h21.49v-55.2c0-4.07.82-7.66,2.46-10.74,1.64-3.09,3.97-5.45,7-7.1,3.02-1.64,6.57-2.46,10.65-2.46,5.65,0,9.86,1.71,12.62,5.12,2.76,3.42,4.14,8.48,4.14,15.18v55.2h21.88v-57.76c0-10.78-2.7-19.29-8.08-25.53-5.39-6.24-13.21-9.37-23.46-9.37Z"/><path class="cls-1" d="m1910.74,2.59v78.25c-2.97-4.73-6.62-8.53-10.94-11.42-5.72-3.81-12.39-5.72-20.01-5.72s-15.02,1.87-21.78,5.62c-6.77,3.75-12.19,9.14-16.27,16.17-4.08,7.03-6.11,15.54-6.11,25.53s2.04,18.34,6.11,25.43c4.07,7.1,9.49,12.52,16.27,16.26,6.77,3.75,14.03,5.62,21.78,5.62s14.29-1.91,20.01-5.72c4.33-2.88,7.97-6.71,10.94-11.47v15.22h21.49V2.59h-21.49Zm-3.84,124.1c-2.56,4.27-5.82,7.53-9.76,9.76-3.94,2.24-8.02,3.35-12.22,3.35-4.86,0-9.37-1.12-13.5-3.35-4.14-2.23-7.46-5.52-9.96-9.86-2.5-4.34-3.75-9.53-3.75-15.57s1.25-11.24,3.75-15.57c2.49-4.34,5.82-7.62,9.96-9.86,4.14-2.23,8.64-3.35,13.5-3.35,4.2,0,8.28,1.12,12.22,3.35,3.94,2.24,7.2,5.49,9.76,9.76,2.56,4.27,3.84,9.5,3.84,15.67s-1.28,11.4-3.84,15.67Z"/><path class="cls-2" d="m989.95,68.33c-11.94-11.94-41.11-41.11-53.01-53.01,0,6.59,0,24.63,0,45.89,2.74,2.74,5.16,5.16,7.12,7.12,5.45,4.74,9.09,11.61,8.96,18.91.03,5.89-2.22,11.74-6.16,16.11-.59.59-4.47,4.47-9.93,9.93,0,21.26,0,39.29,0,45.89,0,0,53.51-53.51,55.82-55.82,3.93-4.37,6.19-10.21,6.16-16.11.13-7.3-3.52-14.17-8.96-18.91Z"/><path class="cls-1" d="m891.05,15.32c0,18.36,0,125.48,0,143.85,0,0,29.81-29.81,45.89-45.89,0-16.7,0-35.38,0-52.08-13.93-13.93-35.94-35.94-45.89-45.89Z"/></g></svg>